# xmcd CD database generated by RipIT
#
# Track frame offsets:
# 150
# 11248
# 25076
# 36518
# 49768
# 58248
# 71983
# 85263
# 95037
# 110591
# 123150
# 133395
# 145719
# 156018
# 167787
# 180346
# 194464
# 209081
# 224371
#
# Disc length: 3157 seconds
#
# Revision: 1
# Processed by: cddbd v1.5.2PL0 Copyright (c) Steve Scherf et al.
# Submitted via: RipIT 4.0.0-beta20140508 www.suwald.com/ripit/ripit.html on 2018-03-14 at 16:47
#
DISCID=270c5313
DTITLE=Dave Dudley - The Farewell Album - CD2
DYEAR=2004
DGENRE=Country
TTITLE0=I am going home
TTITLE1=Just memories
TTITLE2=Come and gone
TTITLE3=Us old Truckers (... Dont like rocking while we roll)
TTITLE4=Sleepy eyed John
TTITLE5=Deep in the heart of Texas
TTITLE6=Black and blue
TTITLE7=A place in the sun
TTITLE8=I am single again
TTITLE9=Charlies Rodeo Band
TTITLE10=Gas pump Jockey
TTITLE11=That magic song
TTITLE12=Charlies shoes
TTITLE13=Somewhere between Big D and San Antone
TTITLE14=In the Northwoods
TTITLE15=Soldiers spouse lament
TTITLE16=Rolling in my sweet babies arms
TTITLE17=Hey hello highway
TTITLE18=Now and then
EXTD=
EXTT0=
EXTT1=
EXTT2=
EXTT3=
EXTT4=
EXTT5=
EXTT6=
EXTT7=
EXTT8=
EXTT9=
EXTT10=
EXTT11=
EXTT12=
EXTT13=
EXTT14=
EXTT15=
EXTT16=
EXTT17=
EXTT18=
PLAYORDER=
